<?xml version="1.0" encoding="utf-8"?>
<!-- Generator: Adobe Illustrator 28.1.0, SVG Export Plug-In . SVG Version: 6.00 Build 0)  -->
<svg version="1.1" id="Layer_1" xmlns="http://www.w3.org/2000/svg" xmlns:xlink="http://www.w3.org/1999/xlink" x="0px" y="0px"
	 viewBox="0 0 512 512" style="enable-background:new 0 0 512 512;" xml:space="preserve">
<style type="text/css">
	.st0{display:none;}
	.st1{display:inline;fill:#FFFFFF;}
	.st2{fill:#FFFFFF;}
</style>
<g id="Layer_2_00000152956348099195004440000009093470137853393806_" class="st0">
	<rect class="st1" width="512" height="512"/>
</g>
<g id="Layer_1_00000018196857454888423760000004551906671357443765_">
	<path class="st2" d="M310.3,451c3,0,5.9,0.1,8.5,0.1c20.8,0,31.4-1.4,38.5-10.8c2.6-3.5,6.1-11,0.1-22c-1.9-3.5-4.8-7.6-9.2-12.9
		c-2-2.4-4.3-5-6.8-7.8L314.9,369c-2.2-2.4-4.5-4.8-6.9-7.3l-65.1-70.1c-0.4-0.5-0.8-0.9-1.2-1.4c-11-12.6-10.1-31.9,2.2-43.5
		c12.6-11.7,32.4-11,44.2,1.6l24.8,26.7c13.4,13.3,27.1,23.9,36.3,19.4c10.2-5,10.9-16.4,11-46.7l0,0v-145c0-23.2-18.9-42-42-42
		H193.3c-23.2,0-42,18.8-42,42v306.5c0,23.2,18.8,42,42,42h117V451z"/>
</g>
</svg>
