<?xml version="1.0" encoding="utf-8"?>
<!-- Generator: Adobe Illustrator 28.1.0, SVG Export Plug-In . SVG Version: 6.00 Build 0)  -->
<svg version="1.1" id="Layer_1" xmlns="http://www.w3.org/2000/svg" xmlns:xlink="http://www.w3.org/1999/xlink" x="0px" y="0px"
	 viewBox="0 0 220.9 67.6" style="enable-background:new 0 0 220.9 67.6;" xml:space="preserve">
<g>
	<g>
		<path d="M20.4,42.6c0-0.6-0.2-1.2-0.5-1.6c-0.4-0.5-1-0.9-1.9-1.4c-0.9-0.4-2.3-0.8-4.1-1.2c-1.6-0.4-3.1-0.8-4.5-1.3
			c-1.4-0.5-2.6-1.2-3.6-1.9c-1-0.8-1.8-1.7-2.4-2.7c-0.6-1-0.8-2.2-0.8-3.6c0-1.3,0.3-2.6,0.9-3.8C4,23.9,4.9,22.9,6,22
			s2.4-1.6,4-2.1c1.6-0.5,3.3-0.8,5.3-0.8c2.8,0,5.1,0.4,7.1,1.3c2,0.9,3.5,2.1,4.6,3.6c1.1,1.5,1.6,3.3,1.6,5.2h-8.4
			c0-0.8-0.2-1.6-0.5-2.2c-0.3-0.7-0.9-1.2-1.6-1.6c-0.7-0.4-1.6-0.6-2.8-0.6c-0.9,0-1.7,0.2-2.4,0.5c-0.7,0.3-1.2,0.8-1.6,1.3
			c-0.4,0.5-0.5,1.1-0.5,1.8c0,0.5,0.1,0.9,0.3,1.3s0.5,0.7,1,1c0.5,0.3,1.1,0.6,1.8,0.9c0.8,0.3,1.7,0.5,2.8,0.7
			c2.3,0.5,4.3,1.1,6.1,1.8c1.8,0.8,3.2,1.8,4.3,3c1.1,1.3,1.6,3,1.6,5c0,1.4-0.3,2.7-0.9,3.9c-0.6,1.2-1.5,2.2-2.7,3.1
			c-1.2,0.9-2.6,1.5-4.2,2c-1.6,0.5-3.5,0.7-5.5,0.7c-2.9,0-5.4-0.5-7.5-1.6c-2-1.1-3.6-2.4-4.6-4c-1-1.6-1.6-3.3-1.6-5h8
			c0,1.2,0.3,2.1,0.9,2.8s1.3,1.2,2.1,1.5c0.9,0.3,1.8,0.5,2.8,0.5c1.1,0,2-0.2,2.7-0.5c0.7-0.3,1.3-0.7,1.7-1.2
			C20.2,43.9,20.4,43.3,20.4,42.6z"/>
		<path d="M43,45.3c1,0,2-0.2,2.8-0.6c0.8-0.4,1.4-1,1.9-1.7c0.5-0.7,0.7-1.6,0.7-2.6h7.9c0,2.2-0.6,4.2-1.8,5.9s-2.7,3.1-4.7,4.1
			c-2,1-4.2,1.5-6.6,1.5c-2.5,0-4.6-0.4-6.4-1.2c-1.8-0.8-3.3-2-4.6-3.4c-1.2-1.5-2.1-3.2-2.7-5.1c-0.6-1.9-0.9-4-0.9-6.3v-0.8
			c0-2.2,0.3-4.3,0.9-6.3c0.6-1.9,1.5-3.6,2.7-5.1c1.2-1.5,2.7-2.6,4.5-3.4s3.9-1.2,6.4-1.2c2.6,0,4.9,0.5,6.8,1.5s3.5,2.4,4.6,4.3
			c1.1,1.8,1.7,4,1.7,6.5h-7.9c0-1.1-0.2-2-0.7-2.9c-0.4-0.9-1-1.5-1.8-2.1c-0.8-0.5-1.8-0.8-2.9-0.8c-1.2,0-2.2,0.3-3,0.8
			c-0.8,0.5-1.4,1.2-1.8,2.1c-0.4,0.9-0.7,1.9-0.9,3c-0.2,1.1-0.2,2.3-0.2,3.5v0.8c0,1.2,0.1,2.4,0.2,3.5c0.2,1.1,0.5,2.1,0.9,3
			s1,1.6,1.8,2.1C40.7,45.1,41.7,45.3,43,45.3z"/>
		<path d="M65.4,26.5v24.8H57V19.6h7.9L65.4,26.5z M74.9,19.4l-0.1,7.8c-0.4-0.1-0.9-0.1-1.5-0.2c-0.6,0-1.1-0.1-1.6-0.1
			c-1.2,0-2.2,0.2-3.1,0.5c-0.9,0.3-1.6,0.7-2.2,1.3c-0.6,0.6-1,1.3-1.3,2.1c-0.3,0.8-0.4,1.8-0.5,2.9L63,33.3
			c0-2.1,0.2-3.9,0.6-5.7s1-3.2,1.8-4.5s1.8-2.3,2.9-3c1.2-0.7,2.5-1.1,4-1.1c0.5,0,0.9,0,1.4,0.1C74.2,19.2,74.6,19.3,74.9,19.4z"
			/>
		<path d="M73.4,35.8v-0.6c0-2.3,0.3-4.5,1-6.4c0.7-2,1.6-3.7,2.9-5.1c1.3-1.4,2.8-2.6,4.7-3.4c1.9-0.8,4-1.2,6.4-1.2
			s4.5,0.4,6.4,1.2c1.9,0.8,3.5,1.9,4.7,3.4c1.3,1.4,2.3,3.1,2.9,5.1c0.7,2,1,4.1,1,6.4v0.6c0,2.3-0.3,4.4-1,6.4
			c-0.7,2-1.6,3.7-2.9,5.1c-1.3,1.5-2.8,2.6-4.7,3.4c-1.9,0.8-4,1.2-6.4,1.2s-4.5-0.4-6.4-1.2c-1.9-0.8-3.4-1.9-4.7-3.4
			c-1.3-1.5-2.3-3.2-2.9-5.1C73.7,40.2,73.4,38.1,73.4,35.8z M81.8,35.2v0.6c0,1.3,0.1,2.6,0.4,3.7c0.2,1.2,0.6,2.2,1.1,3
			c0.5,0.9,1.2,1.5,2,2c0.8,0.5,1.9,0.7,3.1,0.7c1.2,0,2.2-0.2,3-0.7c0.8-0.5,1.5-1.2,2-2c0.5-0.9,0.9-1.9,1.1-3
			c0.2-1.2,0.4-2.4,0.4-3.7v-0.6c0-1.3-0.1-2.5-0.4-3.6c-0.2-1.1-0.6-2.2-1.1-3c-0.5-0.9-1.2-1.6-2-2.1c-0.8-0.5-1.9-0.8-3-0.8
			c-1.2,0-2.2,0.3-3,0.8c-0.8,0.5-1.5,1.2-2,2.1c-0.5,0.9-0.9,1.9-1.1,3S81.8,33.9,81.8,35.2z"/>
		<path d="M113.3,6.3v45h-8.5v-45H113.3z"/>
		<path d="M125,6.3v45h-8.5v-45H125z"/>
		<path d="M136.7,6.3v45h-8.5v-45H136.7z"/>
		<path d="M154,51.9c-2.5,0-4.7-0.4-6.6-1.2c-2-0.8-3.6-1.9-5-3.3c-1.4-1.4-2.4-3-3.1-4.9c-0.7-1.9-1.1-3.9-1.1-6v-1.2
			c0-2.4,0.3-4.6,1-6.6c0.7-2,1.7-3.7,2.9-5.2c1.3-1.5,2.8-2.6,4.7-3.4c1.8-0.8,3.9-1.2,6.2-1.2c2.2,0,4.2,0.4,6,1.1
			c1.7,0.7,3.2,1.8,4.4,3.2c1.2,1.4,2.1,3,2.7,4.9c0.6,1.9,0.9,4,0.9,6.3v3.5h-25.2v-5.6h16.9v-0.6c0-1.2-0.2-2.2-0.6-3.1
			c-0.4-0.9-1.1-1.7-1.9-2.2c-0.8-0.5-1.9-0.8-3.2-0.8c-1.1,0-2.1,0.2-2.9,0.7c-0.8,0.5-1.5,1.2-1.9,2.1s-0.9,1.9-1.1,3.1
			c-0.2,1.2-0.4,2.5-0.4,3.9v1.2c0,1.3,0.2,2.4,0.5,3.5c0.4,1.1,0.9,2,1.6,2.8c0.7,0.8,1.5,1.4,2.5,1.8c1,0.4,2.1,0.6,3.3,0.6
			c1.5,0,2.9-0.3,4.3-0.9c1.3-0.6,2.5-1.5,3.4-2.7l4.1,4.5c-0.7,1-1.6,1.9-2.7,2.8s-2.5,1.6-4.1,2.2C157.9,51.6,156.1,51.9,154,51.9
			z"/>
		<path d="M184.8,42.6c0-0.6-0.2-1.2-0.5-1.6c-0.4-0.5-1-0.9-1.9-1.4c-0.9-0.4-2.3-0.8-4.1-1.2c-1.6-0.4-3.1-0.8-4.5-1.3
			c-1.4-0.5-2.6-1.2-3.6-1.9s-1.8-1.7-2.4-2.7c-0.6-1-0.8-2.2-0.8-3.6c0-1.3,0.3-2.6,0.9-3.8s1.4-2.2,2.5-3.1s2.4-1.6,4-2.1
			c1.6-0.5,3.3-0.8,5.3-0.8c2.8,0,5.1,0.4,7.1,1.3s3.5,2.1,4.6,3.6c1.1,1.5,1.6,3.3,1.6,5.2h-8.4c0-0.8-0.2-1.6-0.5-2.2
			c-0.3-0.7-0.9-1.2-1.6-1.6s-1.6-0.6-2.8-0.6c-0.9,0-1.7,0.2-2.4,0.5s-1.2,0.8-1.6,1.3c-0.4,0.5-0.5,1.1-0.5,1.8
			c0,0.5,0.1,0.9,0.3,1.3s0.5,0.7,1,1c0.5,0.3,1.1,0.6,1.8,0.9s1.7,0.5,2.8,0.7c2.3,0.5,4.3,1.1,6.1,1.8c1.8,0.8,3.2,1.8,4.3,3
			c1.1,1.3,1.6,3,1.6,5c0,1.4-0.3,2.7-0.9,3.9s-1.5,2.2-2.7,3.1c-1.2,0.9-2.6,1.5-4.2,2s-3.5,0.7-5.5,0.7c-2.9,0-5.4-0.5-7.5-1.6
			s-3.6-2.4-4.6-4c-1-1.6-1.6-3.3-1.6-5h8c0,1.2,0.3,2.1,0.9,2.8s1.3,1.2,2.1,1.5c0.9,0.3,1.8,0.5,2.8,0.5c1.1,0,2-0.2,2.7-0.5
			c0.7-0.3,1.3-0.7,1.7-1.2C184.6,43.9,184.8,43.3,184.8,42.6z"/>
		<path d="M211.4,42.6c0-0.6-0.2-1.2-0.5-1.6c-0.4-0.5-1-0.9-1.9-1.4c-0.9-0.4-2.3-0.8-4.1-1.2c-1.6-0.4-3.1-0.8-4.5-1.3
			c-1.4-0.5-2.6-1.2-3.6-1.9s-1.8-1.7-2.4-2.7c-0.6-1-0.8-2.2-0.8-3.6c0-1.3,0.3-2.6,0.9-3.8s1.4-2.2,2.5-3.1s2.4-1.6,4-2.1
			c1.6-0.5,3.3-0.8,5.3-0.8c2.8,0,5.1,0.4,7.1,1.3s3.5,2.1,4.6,3.6c1.1,1.5,1.6,3.3,1.6,5.2h-8.4c0-0.8-0.2-1.6-0.5-2.2
			c-0.3-0.7-0.9-1.2-1.6-1.6s-1.6-0.6-2.8-0.6c-0.9,0-1.7,0.2-2.4,0.5s-1.2,0.8-1.6,1.3c-0.4,0.5-0.5,1.1-0.5,1.8
			c0,0.5,0.1,0.9,0.3,1.3s0.5,0.7,1,1c0.5,0.3,1.1,0.6,1.8,0.9s1.7,0.5,2.8,0.7c2.3,0.5,4.3,1.1,6.1,1.8c1.8,0.8,3.2,1.8,4.3,3
			c1.1,1.3,1.6,3,1.6,5c0,1.4-0.3,2.7-0.9,3.9s-1.5,2.2-2.7,3.1c-1.2,0.9-2.6,1.5-4.2,2s-3.5,0.7-5.5,0.7c-2.9,0-5.4-0.5-7.5-1.6
			s-3.6-2.4-4.6-4c-1-1.6-1.6-3.3-1.6-5h8c0,1.2,0.3,2.1,0.9,2.8s1.3,1.2,2.1,1.5c0.9,0.3,1.8,0.5,2.8,0.5c1.1,0,2-0.2,2.7-0.5
			c0.7-0.3,1.3-0.7,1.7-1.2C211.2,43.9,211.4,43.3,211.4,42.6z"/>
	</g>
</g>
</svg>
